<?xml version="1.0" ?><!DOCTYPE svg  PUBLIC '-//W3C//DTD SVG 1.1//EN'  'http://www.w3.org/Graphics/SVG/1.1/DTD/svg11.dtd'><svg height="8.4666mm" style="shape-rendering:geometricPrecision; text-rendering:geometricPrecision; image-rendering:optimizeQuality; fill-rule:evenodd; clip-rule:evenodd" version="1.1" viewBox="0 0 846.66 846.66" width="8.4666mm" xml:space="preserve" xmlns="http://www.w3.org/2000/svg" xmlns:xlink="http://www.w3.org/1999/xlink"><defs><style type="text/css">
   <![CDATA[
    .fil0 {fill:black;fill-rule:nonzero}
   ]]>
  </style></defs><g id="Layer_x0020_1"><path class="fil0" d="M29.25 158.38l788.16 0c11.22,0 20.32,9.1 20.32,20.32l0 489.26c0,11.22 -9.1,20.32 -20.32,20.32l-788.16 0c-11.22,0 -20.32,-9.1 -20.32,-20.32l0 -489.26c0,-11.22 9.1,-20.32 20.32,-20.32zm331.29 169.44c-26.72,0 -26.72,-40.63 0,-40.63l125.57 0c26.72,0 26.72,40.63 0,40.63l-125.57 0zm405.82 319.83l-239.5 -225.97 -91.39 68.48c-7.47,5.6 -17.54,5.26 -24.57,-0.21l-91.1 -68.27 -239.5 225.97 686.06 0zm-9.8 -448.64l-666.46 0c111.08,83.23 222.16,166.46 333.23,249.68 111.08,-83.22 222.15,-166.45 333.23,-249.68zm-196.78 198.01l237.32 223.92 0 -401.74 -237.32 177.82zm-510.22 223.92l237.32 -223.92 -237.32 -177.82 0 401.74z"/></g></svg>